<?xml version="1.0" encoding="UTF-8"?>
<!DOCTYPE svg PUBLIC "-//W3C//DTD SVG 1.1//EN" "http://www.w3.org/Graphics/SVG/1.1/DTD/svg11.dtd">
<svg xmlns="http://www.w3.org/2000/svg" xmlns:xlink="http://www.w3.org/1999/xlink" width="460" height="465">
    <style> 
        svg{cursor:pointer;}
        .estado{fill:#034c31;stroke-width:0;}
        .icone_estado{fill:#339966;}
        .uf-actived {fill:#7e9648;}
        g:hover .estado{fill:#7e9648;}
        g:hover .icone_estado{fill:#99ae6a;}
        .label_icone_estado{
            fill:#FFFFFF;
            font-family:Arial;
            font-size:11px;
            line-height:12px;
            font-weight:normal;
        }
    </style>
    <desc>Brasil</desc>
    <g id="44">
        <desc>Acre</desc>
        <path id="estado_ac" class="estado" d="m 50.9 195.7 c 2 -0 4.1 -0.5 6.2 -0.3 1.5 0.6 3 1.1 4.4 1.7 5.1 -3.1 10.3 -6.1 14.9 -9.9 2.5 -1.4 4.9 -3.2 6.7 -5.5 -10.4 -3.6 -20.6 -7.8 -30.6 -12.5 -4.6 -2.2 -7.1 -4 -12.2 -5.4 -9.9 -2.7 -17.2 -3 -25.5 -5.4 -4.2 -1.2 -8.3 -3 -12.4 -4.5 -0.4 1.8 -1.8 3 -3 4.2 1.6 1.7 3.4 3.4 3.8 5.8 2 4.8 6 8.1 9.1 12.2 -0.3 1.1 -0.7 2.3 -1 3.4 3 -0.2 6 0.5 8.7 1.8 0.7 1.5 1.3 2.9 2 4.4 3.1 0 6.1 0 9.2 0 2.2 -2.3 4.4 -4.7 6.6 -7 1.1 -0 2.5 -0.3 2 1.3 0 5.4 0 10.7 0 16.1 0.7 1.2 1.6 1.7 2.8 1 2.8 -0.7 5.7 -0.9 8.6 -1.2 l -0.1 -0.2 z"/>
        <text id="label_icone_estado_ac" class="label_icone_estado" x="48" y="186">AC</text>
    </g>
    <g id="3">
        <desc>Amap&#225;</desc>
        <path id="estado_ap" class="estado" d="m 260.8 66 c 4.2 -4.5 8.8 -8.6 12.8 -13.2 1.8 -2.9 3.4 -4.1 5.9 -4.9 1.4 -1.4 0.7 -3.8 1.1 -5.7 -0.8 -0.8 -1.4 -2 -2.2 -2.6 -1 -0.1 -2.1 0.2 -3 -0.1 -1.3 -1.4 -2.9 -2.6 -4.1 -4 -2.2 -6.6 -4.5 -13.2 -5.7 -20.1 -2 -9.3 -2.2 -5.1 -4.2 -2.7 -1.9 2.3 -4 4.4 -5.8 6.7 -2.2 4.4 -4.4 8.7 -6.5 13.1 -1.7 1.1 -3.4 2.2 -5.1 3.4 -1.5 -0.5 -3 -1.3 -4.4 -1.5 -4.8 2.9 -3.4 -3.1 -4.6 -1.6 -0.8 0.6 -3.2 2.4 -4.3 2.2 -2.6 0.2 -3.8 -0.1 -6.2 -0.8 -0 1 -0.4 4.1 1.2 3.6 1.1 0.1 2.5 -0.5 3.6 0 3.6 1 7.6 3.4 10.1 7.3 4.6 7.7 4.4 8.2 5.1 13.9 0.6 4.3 2.9 2.9 4 4.5 1.3 1.9 1.7 3.7 3 6 1.8 3.2 2.3 4.2 3.6 4.5 1.3 0.4 2.6 -2.2 3.2 -2.9 1.1 -1.7 1.6 -3.7 2.7 -5.2 z"/>
        <text id="label_icone_estado_ap" class="label_icone_estado" x="249" y="45">AP</text>
    </g>
    <g id="1">
        <desc>Amazonas</desc>
        <path id="estado_am" class="estado" d="m 86 177.2 c 0 0 2.1 -2.7 3.4 -3.2 3.3 -0.1 8.4 1.4 12.4 0.2 3.7 -1.1 6.9 -4.5 9.4 -6.7 3.9 -6.6 8.2 -15.1 17.3 -11.7 2.3 0.9 2.9 4.1 4.9 5.6 1.6 1.3 3.5 2.2 5.4 2.8 2.1 0.7 6.6 0.8 6.6 0.8 0 0 3.8 0.3 14.1 0.3 8 -0 13.9 1.4 20.6 0.1 1.3 -4.7 2.5 -9.1 3.2 -12.7 0.7 -3.6 1.7 -3.7 -0.1 -6.7 0 0 -3.5 -3.9 -3 -4.8 4.3 -8.7 11.2 -25.9 11.2 -25.9 6.2 -14.2 11.4 -26.2 11.6 -26.6 l 0.3 -0.6 -4.6 -3.2 c 0 0 -2.7 -2.4 -4.3 -3 -3.2 -1.3 -6.9 -0.6 -10.2 -1.5 -4.4 -3 -8.8 -12.2 -9.7 -17.8 l -0.6 -4.5 -5.3 0 c -5.1 -0.6 -5.5 0.4 -8 4.5 -1.5 2.5 -2.7 4.9 -2.7 5.3 -2.4 3.4 -5.1 3.7 -6.6 1.8 l -2.3 -1.9 -1.9 0 c -3 -0.4 -3.9 2.8 -3.9 4.5 0 1.3 0.6 3.1 -0.5 3.8 -1.8 1.2 -4 0 -6.2 -2 -5.6 -5.6 -5.3 -10.5 -6.2 -18.6 0 0 0.1 -5.7 -0.9 -8.3 -2.3 -3.6 -4.8 -8.1 -7.8 -10.9 -0.3 0.1 -2.3 1.1 -4.5 2 l -4 1.8 0 1.4 0 1.4 -1.5 1.3 c -0.9 0.7 -3.4 2.3 -5.8 3.4 l -4.3 2 -3.2 3.4 c -3.5 3.7 -4.1 4 -4.1 2.1 0 -0.7 -0.3 -1.5 -0.8 -1.8 l -0.8 -0.5 -3.3 1.2 -3.3 1.2 -3.3 -2.6 -3.3 -2.6 -1.5 0 -1.5 0 -0.5 -3.6 -0.5 -3.6 -1.5 -1.9 -1.5 -1.9 -2.6 2.6 -2.6 2.6 -1.1 -1 -1.1 -1 -1.6 1.2 -1.6 1.2 -8 0 -8 0 0 1.7 c 0 1 -0.3 2.3 -0.5 3.1 l -0.5 1.4 3.3 0 c 3.4 -0.3 5.8 1.1 5.4 4.5 -0.4 3.8 -2.6 2.8 -4.8 1.7 -1.8 0.7 -3.5 1.4 -5.3 2.1 l 0 3.6 0 3.6 3 3 3 3 c -1.3 1.4 -0.4 2.2 0.4 3.8 l 1.3 2.6 c 1.8 10.6 -1.2 30.6 -6.4 40 -2.9 -0.1 -5.1 -1 -8.1 -1.9 -3.3 3.8 -8.7 2.2 -12.1 3.5 -1.8 0.7 -4.5 3.4 -4.5 3.4 -3.6 1.5 -5.2 -1.4 -6.9 0.1 -2.4 2.1 -1.5 6.4 -1.5 9.5 0.2 3.1 -1 4.7 -2.4 7.2 0.6 5.5 -3 7.2 -4.8 11.6 -0.4 0.8 5.2 2.4 6.9 3.1 L 18 157.8 l 11.6 2.1 c 12.8 2.6 15.8 4 23.1 7.7 11.5 5.5 27.7 12.3 29.7 12.3 1.6 -0.4 3.6 -2.5 3.7 -2.6 z"/>
        <text id="label_icone_estado_am" class="label_icone_estado" x="95" y="112">AM</text>
    </g>
    <g id="8">
        <desc>Bahia</desc>
        <path id="estado_ba" class="estado" d="m 396.8 280.2 c 0.7 -2.4 2.3 -8.2 2.8 -10.9 1.1 -4.4 3.2 -8.6 2.9 -13.2 0.2 -9.8 0.2 -19.6 1.9 -29.2 -1.1 -2.7 4.3 -3.2 2 -5.4 -1.7 -0.6 0.4 -3.1 1.6 -3.4 1.5 -0.4 2.9 0.4 4 2.6 1.7 0.8 2.1 -1.4 3.4 -2.4 1.8 -3.6 4.6 -7.9 6.3 -9.8 -1.4 -1.8 -4.1 -3.7 -5.2 -6.2 -1.1 -2.6 -3.6 -6.6 -1 -8.4 1 -0.7 2.6 1.7 3.6 0.9 1.8 -1.5 0.9 -4.1 -0.1 -7 -1.1 -3.8 -3.1 -8 -3.4 -10.9 -2 -2.7 -6.3 -6.4 -11.2 -7.3 -2.4 -0.4 -4.5 2 -6.3 3.4 -4.3 1.9 -4.7 3.1 -7.9 3.3 -2.5 0.2 -3.4 -1.2 -4.1 -3.8 -1.1 -2.5 -2.9 -3.5 -4.9 -3.6 -1.2 -0.1 -2.1 1.2 -3.1 1.9 -1.8 1.3 -3.4 3.1 -5.3 4.2 -2.3 1.4 -4.6 2.9 -7.2 3.2 -4.1 0.5 -8.1 -4.2 -12.3 -2.2 -1.4 0.6 0 3 -0.2 4.5 -0.3 1.9 -0.7 3.9 -1.7 5.5 -1.4 2.2 -3.4 4 -5.6 5.3 -2.3 1.3 -5 2.3 -7.6 2 -2.6 -0.3 -6.3 -2.1 -7 -3.7 -1.3 -2.1 -2.7 -7 -3.5 -6.8 -1.4 0.4 -5.2 9 -6.9 14.6 -0.7 2.2 3.1 3.6 3.3 5.9 0.1 1.6 -1.7 3 -1.7 4.6 -0 2.2 2 3.9 2.1 6.1 0.1 2.3 -1.4 3.2 -1.5 6.7 -0.1 3.5 0.6 8.5 1.3 10.3 1.9 3.7 2.9 5.4 -0.4 10.1 5.1 1.1 11.3 -5.2 16.5 -7.5 2.6 -0.7 4.8 -1.1 6.8 0 1.5 0.9 1.4 3.5 2.8 4.5 2.3 1.5 5.5 0.6 8.1 1.4 5.6 1.7 6.8 7.1 16.2 7 2.7 -0 3.2 4.4 5.5 5.7 3.1 2.4 11.1 0.6 12.8 4.9 2.3 5.8 -10.3 12.9 -8.1 16.7 1.8 3.1 4.4 5.1 7 7.1 2.1 1.6 3.6 3.1 5.1 -0.6 z"/>
        <text id="label_icone_estado_ba" class="label_icone_estado" x="365" y="216">BA</text>
    </g>
    <g id="45">
        <desc>Cear&#225;</desc>
        <path id="estado_ce" class="estado" d="m 410.7 155.5 c 0.5 -0.8 -0.2 -1.9 0.1 -2.4 -1.3 -9 3.2 -10.4 2.9 -11.2 -1.6 -3.4 -0.5 -5.2 1 -6.2 2.6 -1.7 3.7 -3 4.6 -4.8 1.4 -3.1 2.4 -3.9 3.9 -5.6 0.5 -0.6 2.8 -0.9 1.7 -1.5 -12.6 -7.2 -9.2 -15.4 -25.2 -22.1 -4.4 -1.8 -10.1 -2.2 -14.3 -1.7 -0.6 0.6 -4 -1.8 -4 -0.6 -0.3 5.7 3.5 11.4 4.2 17.2 0.5 4.7 -1 9.5 -0.2 14.1 0.7 4.1 1.8 9.9 4.3 11.8 5.6 3.3 -0.5 9.6 1.8 10.1 3.7 0.5 6.2 -2 9.2 -1.2 2.5 0.7 4.3 2.9 6.1 4.7 1.4 1.6 3.1 0.1 4 -0.5 z"/>
        <text id="label_icone_estado_ce" class="label_icone_estado" x="395" y="126">CE</text>
    </g>
    <g id="11">
        <desc>Goi&#225;s</desc>
        <path id="estado_go" class="estado" d="m 269.1 289.8 c 1.4 -1.6 2.6 -3.4 4.4 -4.5 1 -0.6 1.4 -0.6 3.3 -1.1 2.7 -0.5 4.3 0.1 6.3 -0.5 2.2 -0.6 3.9 -2.5 6.1 -2.9 4.2 -0.7 8.6 2.4 12.7 1.3 1.7 -0.5 3.4 -1.6 4.4 -3.1 0.9 -1.3 1.3 -2.9 1.3 -4.5 -0 -1.6 -1.6 -2.9 -1.6 -4.5 0.1 -2.4 3.1 -4.2 2.8 -6.5 -1.1 -8.3 -3.5 -8.2 -15.3 -8.9 0.2 -2.8 0.3 -5.6 0.4 -8.4 15.9 -0.8 9.4 0.2 14.6 7.2 1.3 -0.6 2.5 -1.2 3.8 -1.8 2.1 -2.2 -0.7 -6.8 1.3 -9.1 2.8 -3.3 4.9 -1.3 7.1 -2.4 1.2 -0.6 2.8 -1.1 3.3 -2.4 0.6 -1.4 0.2 -2.8 -0.7 -4.4 -0.8 -1.8 -0.8 -2.8 -1.3 -5.4 -1.3 -6.9 0.7 -8 -0.9 -8.4 -2.7 -0.7 -4.6 -1.5 -8.7 -1.8 -3.7 -0.3 -5.2 5.8 -8.8 6.6 -3.9 0.8 -7.8 -1.8 -11.6 -2.7 -1.4 -0 -2.8 1.3 -4.3 1.6 -1.9 0.4 -3.9 1 -5.7 0.5 -1.9 -0.5 -3.6 -1.8 -5 -3.2 -1 -0.9 0.8 -5.6 -2.4 -3.1 -4.3 3.1 -5.4 12 -7.5 18.2 -0.6 1.6 -0.7 3.6 -1.5 5 -1.8 0.8 -4 1.1 -5.3 2.5 -1.8 1.9 -2 4.9 -2.8 7.4 -2.1 1 -5.1 1.9 -7 3.7 -2.3 2.2 -2.9 4.4 -5 8.3 -1.1 1.9 -3.1 4.8 -3.5 7.6 -0.3 2.1 0.8 4.4 1.1 6.4 -0.7 2.7 0.5 2.5 3.4 5.1 0.1 1 -1 2.4 -0 2.6 4.5 1.6 7 2.6 10.4 4.1 3.2 1.6 6.5 3.2 9.8 4.7 0.4 -0.8 1.5 -2 2.4 -2.9 z"/>
        <text id="label_icone_estado_go" class="label_icone_estado" x="267" y="268">GO</text>
    </g>
    <g id="46">
        <desc>Maranh&#227;o</desc>
        <path id="estado_ma" class="estado" d="m 325.5 168.7 c 1.1 -4.3 4.4 -8 6.1 -11.9 0.6 -2.4 -0.7 -3.5 1 -4.3 4.1 -3 7.9 -2.3 11.3 -4.5 2.6 -1.6 4.1 -4.9 6.9 -6.1 3.5 -1.6 8.2 2.5 11.5 -1.1 2.8 -2.6 -3.2 -7.1 -2.1 -8.7 3.2 -4.7 1.2 -16.8 2.4 -19.9 1.3 -3.3 2.7 -6.6 5.2 -9.1 2.1 -2.1 8.3 0.3 7.7 -4.6 -3.1 -1 -6.5 -2.3 -9.5 -3.9 -2.4 -0.9 -4.5 -2.8 -7.2 -2.3 -1.9 -0.6 -1.7 2.7 -3.8 1.8 -1.8 0.1 -3.8 -0.6 -4.5 1.5 -2.1 4.4 -6.5 5.3 -5.8 1.5 0.8 -2.1 -3.2 -1.3 -1.2 -3.4 1.1 -1.5 1.4 -2.8 -0.7 -3.5 0 -1.8 1.7 -4 0.3 -5.7 -0.9 -1.5 -3.8 -5.2 -5.5 -3.2 -1.1 1.9 -1.5 -0.9 -3.7 -1.5 -3.7 -0.9 -5.7 -0.3 -8.1 -2.8 -0.1 3.2 -0.2 4 -1.7 8.1 -2.4 6.8 0 0.7 -3.8 10.1 -1.7 4.1 -3.7 8.2 -6.3 11.9 -1.9 2.7 -2.8 4.3 -6.6 7.5 -5.9 5.1 -6.6 4.8 -9.2 6.9 2.1 0.5 4.9 1 6.9 2.4 1.9 1.3 3.4 3.2 4.3 5.3 1 2.3 0.9 5 1 7.5 0.1 3.4 -1.3 6.8 -0.6 10.1 0.7 2.9 2.2 5.9 4.4 7.8 1.4 1.2 4.5 0.2 5.3 2 0.6 1.4 -1.5 2.8 -1.9 4.3 -0.8 2.9 -1.9 6.1 -1.2 9.1 0.5 2.4 3.2 3.8 3.9 6.1 0.4 1.3 -0.4 2.8 0.3 4 0.8 1.5 2.7 3.1 4.2 3 4.5 -5.8 -0.5 -9.8 0.7 -14.5 z"/>
        <text id="label_icone_estado_ma" class="label_icone_estado" x="325" y="122">MA</text>
    </g>
    <g id="47">
        <desc>Mato Grosso</desc>
        <path id="estado_mt" class="estado" d="m 204.1 266.7 c 1.7 -0.6 3.6 -0.3 5.4 -0 3.5 0.6 6.5 4 10 3.6 6.3 0.3 15.9 -2.6 17.5 -1.6 1 1.7 0.6 4.8 2.7 5.5 2.7 1.6 0.4 -2.8 0.6 -4.3 0.6 -2.4 3.5 -7.2 4.2 -9 3.2 -4.6 3.1 -5.6 5.4 -7.8 1.8 -1.8 5.5 -2.7 6.4 -4.2 0.8 -1.6 2.3 -7.6 6.2 -8.8 3.5 0 2.6 -4 3.6 -5.8 1.1 -6 3.4 -11.7 5.9 -17.3 -0.7 -2.9 -1.5 -5.6 -1.7 -8.5 -0.4 -6.3 -0 -12.6 1 -18.8 0.6 -3.8 2.1 -7.5 3.2 -11.1 -24.5 -2 -49.7 -2.4 -74.2 -3.9 -1.5 -1.5 -3.7 -2.6 -4.8 -4.2 0.5 -3.4 -4.6 -2.7 -5.9 -5.5 -2.4 -2.6 -0.7 -7.3 -2.8 -10.5 -3.5 -9.1 -3.8 10.9 -5.7 12.4 -1.5 1.4 -4.2 0.2 -6.2 0.6 -9.5 0 -21 -0.4 -28.4 -0.4 -1 0 0.4 6.9 0.2 10.3 -0.2 2.8 -1.7 5.6 -1.2 8.4 0.4 2.1 1.7 4.1 3.4 5.4 2.9 2.2 7.7 0.7 10.3 3.2 4 3.8 6 10.1 5.5 15.5 -0.5 5.2 -4.9 9.2 -7.8 13.6 -4.2 0.9 0.1 3.4 1.8 5.3 2.1 2.3 1 6 1.7 8.8 0 2.4 0.7 5 -1.2 6.9 1.4 1.9 4.3 3.3 3.6 6 0.2 1.9 -0.5 4.8 0.4 6.1 6.9 0.2 13.7 0.3 20.6 0.5 0.8 3 -2.3 5.4 -0.8 8.3 -0.1 2.6 1.7 3.6 3.9 4.2 2.4 0.4 3.3 2.3 4.1 4.4 0.6 3.4 2.1 2.3 3.8 0.2 2.7 -4.4 5.5 -6.4 9.2 -7.8 z"/>
        <text id="label_icone_estado_mt" class="label_icone_estado" x="207" y="216">MT</text>
    </g>
    <g id="48">
        <desc>Mato Grosso do Sul</desc>
        <path id="estado_ms" class="estado" d="m 224.6 347.5 c 1.6 -1.9 4.8 -2.2 7.3 -1.9 1.5 -4.1 1.1 -5.6 2.3 -8.1 0.8 -1.6 1.9 -3.1 3.2 -4.3 3 -2.7 7.4 -3.6 10.5 -6.1 1.4 -1.1 2.5 -2.5 3.5 -3.9 0.8 -1.2 3.2 -5.6 5.8 -10.4 2.6 -4.8 5.1 -8.6 7 -13.1 0.7 -1.7 1.1 -3.3 1.7 -5.3 -6.1 -2.8 -11 -5.1 -16.5 -7.3 -2.1 -1 -3.8 -0.7 -5 -2.1 -0.8 -1 1 -3 -0.8 -3.7 -1.4 -0.5 -3.5 -1.6 -3 -3.2 0.8 -2.6 -2.7 -2.4 -3.6 -3.9 -0.6 -1 -0.2 -1.6 -1.2 -3.4 0.4 -1.9 -13 1.3 -16.4 1.1 -4 -0.3 -7.3 -3.5 -11.3 -3.8 -2.2 -0.1 -4.2 0.6 -6.4 1.4 -3 1 -7 6 -8.9 10.3 -0.6 1.9 -2.1 12.6 -5.4 18.5 0.9 1.3 1.7 2.6 2.6 3.9 -0.8 1.1 -2.2 2 -2.7 3.2 1 3.1 2.2 6.2 3 9.4 -0.2 3.8 0.1 5.6 -1.2 9.3 4.3 1.3 7.5 -0.4 12 -0.1 0.9 -0.7 5 -4 6.1 -3.1 6.4 3.9 6 6.7 8.2 14.3 -1.9 3.9 1.9 3.5 1.4 5.9 0.1 1.9 -0.3 3.8 0.2 5.6 0.8 0.8 0.8 3.2 2.2 2.8 1.7 -0.4 4.3 -0.8 5.2 -1.9 z"/>
        <text id="label_icone_estado_ms" class="label_icone_estado" x="218" y="305">MS</text>
    </g>
    <g id="7">
        <desc>Minas Gerais</desc>
        <path id="estado_mg" class="estado" d="m 366.1 310.3 c 2 -2.4 5.3 -4.2 7.4 -6.8 1.8 -2.3 4.1 -4.7 4.3 -7.6 0.1 -2.2 -1.8 -4.2 -2.5 -6.1 2.3 -0.9 2.7 -2.2 1 -4 -0.1 -1.9 1 -4.3 3.8 -3.7 0.6 -2.8 0.9 -2.6 3 -2.3 7 0.6 -1.8 -4.9 0.1 -8.7 1.5 -5 9.8 -8.6 8 -13.5 -1.5 -3.9 -8.3 -1.7 -11.9 -4 -2.3 -1.6 -3.1 -5.8 -5.9 -6.1 -10.2 -0.8 -11.3 -6.2 -15.5 -7.1 -4.2 -0.9 -6.2 -0 -8.6 -1.7 -1.4 -0.9 -1.2 -3.5 -2.7 -4.2 -3 -1.2 -5.7 -0.4 -9.5 2.2 -4.2 2.9 -6.1 5.2 -10.9 5.8 -1.8 0.2 -2.8 -0.5 -4.5 -1.2 -1.4 -0.5 -4.9 -0 -6.4 1.6 -2.3 2.4 0.9 8.8 -1.9 9.8 -3.5 0.9 -4.3 2 -4.6 3.9 -0.2 1.1 1.8 4.9 1.5 7.4 -0.2 2.2 -2.5 3.9 -2.7 6 -0.1 1.7 1 2.3 1.3 4.8 0.3 2.7 -0.8 4.5 -2.4 5.9 -2.4 2.1 -6.1 3.1 -9.2 2.4 -1.8 -0.4 -5.2 -1.9 -7.8 -1.5 -2.2 0.3 -3.8 2.4 -5.9 3 -2.6 0.8 -5.7 -0.3 -8.1 1 -2.6 1.3 -4.5 3.8 -6.1 6.3 -1.1 1.7 -1.2 2.2 -2.2 5.8 0.9 1.1 6.1 -0 8.8 0.4 2.1 0.4 5 0.8 7.4 1.7 2.7 1 4.8 3.7 7.6 4.2 2.4 0.4 4.9 -0.8 7.3 -1.1 2.6 -0.4 5.4 -2.4 7.7 -1.2 1.6 0.8 2.1 3.1 2.5 4.8 0.4 1.7 -0.4 4 -0.2 5.1 0.2 1.6 4.6 14.2 5.1 15.8 0.5 1.5 3.2 7 4 8 0.6 0.9 4.8 -0.3 7.2 -0.9 2.1 -0.5 6.3 -2.1 10.8 -3.8 4.6 -1.5 5 -1.5 11.3 -3.1 2.8 0.3 4.4 1.3 6.6 0.8 2.9 -0.6 6.9 -2.6 7.7 -4.3 1.7 -3.5 3.7 -10 5.3 -11.2"/>
        <text id="label_icone_estado_mg" class="label_icone_estado" x="331" y="288">MG</text>
    </g>
    <g id="12">
        <desc>Par&#225;</desc>
        <path id="estado_pa" class="estado" d="m 282.5 165.8 c 3.3 -4.2 3.1 -5.1 4.3 -7.7 1.5 -3.2 -0.7 -6.8 0.3 -10 1.3 -4 4.1 -7.6 7 -10.3 2.4 -2.3 4.9 -4.9 5.1 -8.1 0.1 -2.8 -4.3 -7.1 -3.7 -7.6 3 -2.4 9.4 -5.9 13.1 -10 3.6 -3.9 6.2 -8.7 8.6 -13.4 2.9 -5.7 5.5 -12.5 6.9 -17.9 0.7 -2.9 1.5 -3.9 -2.9 -5.9 -2.6 -1.2 -5.9 -3.1 -12.3 -4.2 -13.5 -2.4 -6.4 -5.5 -10 -7.7 -5.7 -3.6 -9.1 -5.8 -18.2 -9 -2.1 0.9 -4.1 0.4 -6 0.1 -3.8 3.4 -11.8 11.1 -13.5 14.2 -7.9 13.6 -6.7 7.7 -10.4 3.5 -1.6 -1.9 -2.6 -3.3 -3.5 -6.1 -1.4 -3.2 -4 -1.7 -4.8 -5 0.1 -9.6 -2.7 -10.6 -6.6 -16.7 -2.2 -3.4 -6.9 -4.9 -11.3 -4.6 -3.3 -0.1 -1.8 -4.1 -2.5 -6.4 -0.7 -2.4 -4.1 -1.3 -6 -0.7 -2.3 1.1 -4.6 0.4 -6.9 -0.1 -2.5 2 2.4 5 -0.1 6.6 -1.9 2 -4.9 0.1 -7.3 0.3 -3.1 0 -6.3 -1.3 -9.3 -0.4 -2 1.8 -16.9 8.7 -17.4 8.8 -2.1 3.4 0.7 9.4 0.7 13.7 0.9 6.5 4.1 13.1 8.5 17.4 4.5 1.1 8.3 -0.2 11.8 2.7 2.1 1.6 6.7 3.8 8.2 5.8 -1.4 6.7 -5 12.8 -7.4 19.2 -5 11.6 -10.1 22.9 -15.1 34.5 4.1 6.8 7.2 12.2 7.8 19.2 0.2 4.5 3.1 5.5 5.8 7.1 1.8 1.8 3.3 4.3 5.3 5.6 25 1.1 50.8 2.4 74.4 3.6 1.7 -5.5 4.7 -7.7 7.2 -10.8 z"/>
        <text id="label_icone_estado_pa" class="label_icone_estado" x="241" y="111">PA</text>
    </g>
    <g id="14">
        <desc>Paran&#225;</desc>
        <path id="estado_pr" class="estado" d="m 258.7 378.8 c 4.3 -0.5 7.6 -4.3 11.8 -5.5 4 -1.2 6.4 1.2 9.6 0.9 2.5 -0.2 4.2 -3.2 7.2 -2.1 1.3 0 2.5 0 3.8 0 1.4 -2.7 -3.5 -3.2 -2.8 -4.9 0.9 -2.1 4.3 -1.6 6.5 -1.7 2.4 0.6 0.4 -1 -0.3 -1.9 -0.6 -0.9 -1.3 -1.6 -2.4 -1 -0.7 -0.1 -1.7 0.5 -2.2 -0.1 -0.9 -1.1 0.5 -2.7 0.7 -4.1 -2.5 0 -4.8 0.8 -6.6 -0.6 -2.1 -1.6 2 -3.2 -2.7 -7.4 -1.7 -1.9 -2.2 -4.4 -1.9 -6.9 -0.1 -2.8 0.1 -4.9 -2.2 -6.3 -2.7 -1.5 -6.7 -1 -10 -1.8 -2.7 -0.6 -5.1 -1.9 -7.8 -2.4 -4.9 -0.9 -10 -2.1 -14.9 -1.2 -2.7 0.5 -6.1 1.5 -7.4 3.7 -2.5 4.4 -3.7 10 -5.3 15.1 -1.3 4.4 -2.2 10.1 -3.6 13.2 -0.4 1.1 -0.9 2.2 -1.3 3.3 1.6 -0.4 3.2 -0.7 4.8 -1.1 2.7 2.2 3 5.7 6.2 7.8 5.7 3.6 13.6 5.5 20.6 4.7 z"/>
        <text id="label_icone_estado_pr" class="label_icone_estado" x="249" y="358">PR</text>
    </g>
    <g id="15">
        <desc>Pernambuco</desc>
        <path id="estado_pe" class="estado" d="m 441.8 173.5 c 2.4 -0.7 4.8 -0.6 7.4 -0.3 1.8 0.2 3.4 0.9 4.4 0.2 1 -0.7 1.6 -4.5 1.4 -6.3 0.1 -3.3 0.2 -6.2 0.2 -9.2 -1.7 0 -3.5 0 -5.2 0 -0.5 0.8 -1.3 1.5 -2.2 1.9 -1.1 0.6 -2.4 0.8 -3.6 1 -1.7 0.2 -3.6 -0.5 -5.2 0.1 -2.2 0.8 -1.9 2.8 -5.5 4.2 -2 -0.3 -2.5 -0.4 -3.3 -1.2 -1 -0.8 -1.6 -1.6 -1.7 -3.4 0.3 -1.8 1.1 -3 2 -4.6 -0.4 -2.2 -1.6 -2.4 -2.3 -1.4 -3.3 2.3 -5.7 4.4 -9.8 5.1 -2.1 -0.4 -4.3 -1.8 -7.1 -2.3 -2.1 1.1 -2.7 0.8 -4 0.5 -2.9 -0.7 -4.5 -4.3 -7.3 -5 -3.2 -0.8 -6.2 2 -9.7 1.1 -2.7 -0.7 1.8 6.3 -0.1 8.2 -1.2 1.2 -1.6 1.6 -4 2.8 -1.3 0.7 -3.1 0.7 -3 2.3 0.1 1.4 3 2.2 3.5 3.1 1.5 2.8 0.8 4 2.5 4.5 4.9 1.6 10.6 -6 14 -6.5 3 -0.4 3.3 0.7 7.8 2.7 2.4 1.1 4.3 4 5.9 4.8 1.8 -0.5 3.9 -2.3 6.1 -2.3 4.3 -0.1 8 4.4 12.4 4 2.4 -0.9 4.1 -3.2 6.6 -4 z"/>
        <text id="label_icone_estado_pe" class="label_icone_estado" x="412" y="170">PE</text>
    </g>
    <g id="16">
        <desc>Piau&#237;</desc>
        <path id="estado_pi" class="estado" d="m 343.5 191 c 1.7 -0.8 3.6 -2 4.9 -3.5 1.4 -1.6 2.7 -3.7 3.1 -5.7 0.7 -3.6 -1.3 -5.1 0.2 -6.8 1.2 -1.3 3.4 -0.8 5.2 -0.7 3 0.2 5.7 2.4 8.7 2.1 3.1 -0.4 5.5 -2.8 8.4 -4.2 5.7 -4.9 5.3 -4 7.3 -6.2 1.6 -1.7 4.6 -2.4 6.6 -4.5 1.9 -2 -0.7 -5.6 0.2 -8.4 1.5 -2 2.7 -4.2 1.7 -7.8 -0.8 -2.8 -2.9 -1.7 -3.8 -4.6 -0.9 -2.6 -2 -6.7 -2.4 -10.1 -0.6 -5.2 1.2 -10.4 0 -15.6 -0.6 -2.9 -3.2 -8.8 -3.6 -14 -0.4 -3.2 -0.2 -1.7 -2.6 -2.1 -1.4 -0.1 -1 2.2 -1.7 3.2 -2.2 1.5 -4.2 0.7 -6.6 2 -1.4 0.8 -4.5 4.2 -5.4 7.7 -1.9 3.9 1.1 12.9 -2.3 19.9 -1.7 3.5 7.2 7.8 0.5 11 -3.3 1.8 -7.7 -1.1 -11.2 0.4 -2.7 1.1 -3.9 4.5 -6.3 6.1 -3.5 2.4 -12.4 3 -11.7 5.2 1 3 -5.5 10.6 -6.1 14.3 -0.4 2.3 0.7 4.6 1.2 6.9 0.5 2.6 -0.5 4.1 1.5 7.6 1.9 3.3 2.3 6.4 5 8 3.4 1.4 6.1 1.2 9 -0.1 z"/>
        <text id="label_icone_estado_pi" class="label_icone_estado" x="358" y="160">PI</text>
    </g>
    <g id="21">
        <desc>Rio Grande do Sul</desc>
        <path id="estado_rs" class="estado" d="m 242.1 462.6 c 1.4 -1.2 3.2 -2 3.6 -3.9 1.8 -4 3.5 -8 5.6 -11.9 -2.9 -0.2 -1.4 -2.7 -0.7 -4.6 0.1 -3.1 2.5 -4.9 5 -6.2 2.3 -0.6 0.4 -3.5 2.4 -4.5 1.9 -2.6 3.3 -5.5 5 -8.3 1.5 0 6 -0.3 4.4 1.8 -2 2.6 -2.8 6 -5 8.4 -1.8 2.3 -3.3 4.9 -5.9 6.5 -1.7 0.8 -5.2 5.7 -1.4 4 1.8 -0.3 2.6 -2.2 4 -3.3 2.2 -2.5 4.7 -4.7 6.8 -7.3 3.2 -5.9 6.7 -12.5 10.3 -18.1 -1.7 -1.6 -1.8 -2.6 -3.8 -4.6 1.7 -2.5 4.7 -4.6 3.4 -6.7 -1.2 -2 -2.9 -0.6 -7.1 -0.2 -6.3 -8.3 -8.4 -11.6 -17.7 -14.6 -4.8 -1.5 -12.7 -1.9 -16.8 -1.7 -5.4 2.8 -8.7 5.3 -13.2 9.5 -9.9 6.6 -16.7 18.3 -24.1 26.7 1.7 1.3 2.6 -0 3.9 -0.9 1.8 -0.7 3.5 -0.3 4.5 1.3 2.3 2.4 4.7 4.8 7 7.2 0.2 1 -0.6 4 0.9 2.4 1.1 -0.7 2.1 -1.5 3.2 -2.2 4.6 5.2 10.8 8.7 15.6 13.1 4.5 0.3 5.4 6.1 9.6 9.4 -1.2 2.5 -2.6 4.9 -3.6 7.5 -0.4 2.2 0.5 4.5 2.7 1.9 0.5 -0 1.1 -1.6 1.4 -0.6 z"/>
        <text id="label_icone_estado_rs" class="label_icone_estado" x="233" y="419">RS</text>
    </g>
    <g id="19">
        <desc>Rond&#244;nia</desc>
        <path id="estado_ro" class="estado" d="m 155.6 222.6 c 3.3 -4.3 6.9 -8.3 7.1 -13.3 0.3 -5.2 -2 -12.2 -5.7 -14.4 -2.8 -1.6 -7.3 -1 -9.6 -3.1 -1.8 -1.7 -3.6 -4.5 -3.6 -6.6 -0 -2.7 1.4 -5.5 1.3 -8.3 -0.1 -3.4 -0.4 -5.9 -0.5 -9.7 -3.4 -0.3 -7.8 -1.8 -11.2 -3.9 -2.3 -1.4 -3.3 -4.7 -5.7 -5.8 -11 -2.5 -10.7 5.9 -16.3 11.7 -2.3 1.7 -6.4 6.1 -10.5 7.2 -3.6 1 -7.3 -0.4 -11.1 -0.5 -1.4 1.6 -2.6 2.8 -4.3 4.1 12.9 1.1 14.7 1.5 16.2 10.7 -0.1 3.3 -1.1 6.8 0.1 9.8 1.6 3.9 5 7 8.7 9.2 1.4 0.9 2.6 2.2 4.1 2.8 4.1 1.6 12.5 1 13.1 1.9 1.5 1.3 2.9 2.9 4.5 4 1.9 0.5 4 0.7 5.8 1.3 1.2 1.4 2.4 2.7 3.6 4.1 4.6 -0.3 9.3 0 13.7 -1.2 l 0.1 -0.1 z"/>
        <text id="label_icone_estado_ro" class="label_icone_estado" x="121" y="198">RO</text>
    </g>
    <g id="20">
        <desc>Roraima</desc>
        <path id="estado_rr" class="estado" d="m 142.4 70.1 c 1.2 -3.4 1.7 -3.5 3.4 -4.2 1.3 -0.5 2.8 0.1 4.2 0.6 1.5 0.5 2.5 2.8 4 2.5 3.9 -0.8 4.8 -5.9 6.7 -9.9 3.1 -4.3 8.3 -3.2 13 -3.2 0 -2.6 0 -5.2 0 -7.8 -1.5 -2 -3.9 -2.9 -5.7 -4.5 -1.2 -1.3 -2.7 -2.5 -3.8 -4 -0.5 -1.8 -0.6 -3.9 -1.4 -5.6 -0.7 -1 -1.8 -1.8 -2.3 -2.9 0.6 -4.2 1.3 -8.4 1.5 -12.7 1.1 -0.9 2.2 -1.9 3.3 -2.8 -0.4 -1.9 -0.8 -3.8 -1.2 -5.6 -1.5 -0.8 -3 -1.5 -4.5 -2.2 0.2 -2.5 0.3 -4.9 0.5 -7.4 -1.7 0 -3.4 0 -5.1 0 0.2 1 1.5 2.3 0.1 3 -2 1.9 -4.1 3.9 -6.1 5.8 -1.2 0.2 -2.6 -0.3 -3.6 0.3 -1.8 1.3 -3.2 3.3 -5.6 3.6 -1.6 0.4 -3.3 1.2 -5 1.3 -1.1 -0.4 -2.3 -1.6 -3.1 -0.2 -0.9 1.2 -1.7 1.2 -2.6 -0 0 0.8 0.5 2.4 0.7 3.5 -0.1 1.1 -1.7 1.7 -2.4 2.6 -0.9 1.3 -1.9 -0.8 -2.8 -1.3 -1 -0.8 -1.9 -1.9 -3 -2.5 -4.8 2.7 -10.7 -1.9 -11.4 -2 -7.1 -0.6 -1 1.9 1.6 3.5 0 2.6 0 5.3 0 7.9 1.2 0.5 2.1 1.3 1.7 2.7 -0.3 1.3 0.4 2.3 1.4 3.1 0.8 1.2 1.8 1.7 3.1 0.9 1.1 -0.2 2.4 -1.1 3 0.3 3.8 4.3 7.9 8.5 10 13.8 2.4 6 0.6 12.3 2.6 19.1 0.9 2.9 1.7 5.4 4.7 7.6 1.9 1.1 3.2 0.9 3.4 -0.1 0.1 -0.3 0.4 -3.4 0.7 -3.5 z"/>
        <text id="label_icone_estado_rr" class="label_icone_estado" x="137" y="41">RR</text>
    </g>
    <g id="22">
        <desc>Santa Catarina</desc>
        <path id="estado_sc" class="estado" d="m 287.5 399.8 c -0.8 -2 1.4 -2.5 1.7 -4.1 0.3 -2 0.7 -4 1 -6 -0.8 -1.9 -2.3 -3.5 -2.1 -5.6 -0.1 -2.6 -0.3 -5.2 -0.4 -7.8 2.1 0.5 2.2 -2.5 0.1 -1.8 -1.4 0.1 -2.7 -1 -4 -0.8 -1.2 0.9 -2.2 1.8 -3.5 2 -1.8 0.3 -3.6 -1.4 -5.4 -1.3 -5.1 0.2 -7.1 1.8 -11.4 4.2 -3.7 2 -9 1.7 -13.4 1.2 -5.2 -0.6 -11 -4.3 -15 -5.1 -1.6 3.9 -1.1 8 -1.1 10.8 9.5 0.4 19.9 1.1 27 6.7 3 2.4 6.7 6 8.8 9.3 3 0.3 6.1 -1.6 7.9 0.4 1.5 1.8 1.2 2.6 -0 3.6 -1 1.4 -2.4 3.8 -3.4 5.2 1 0.8 1.5 1.9 2.6 2.6 3.4 -3.5 7.6 -8.3 11 -11.8 -0.2 -0.3 0.4 -2.2 -0.3 -1.9 z"/>
        <text id="label_icone_estado_sc" class="label_icone_estado" x="267" y="392">SC</text>
    </g>
    <g id="23">
        <desc>S&#227;o Paulo</desc>
        <path id="estado_sp" class="estado" d="m 305.6 356.2 c 2.6 -1.6 4.9 -3.8 7.7 -5.1 2.5 -1.5 4.8 -2.7 7.3 -3.3 1.3 -0.1 2.8 0.8 4.1 0.4 3.1 -0.8 4.8 -2.1 7.9 -5.6 5.8 -6.1 1.3 -7.3 -0.8 -8.7 -4.8 2.2 -8.4 2.9 -12.7 4 -1.4 0.2 -2.8 -0.3 -3.4 -1.4 -1.8 -3.6 -4.6 -10.8 -6 -15.3 -1.3 -4.3 -2.5 -7.9 -2.8 -9.3 -0.2 -0.8 0.5 -2.5 0.3 -3.7 -0.2 -1.8 -0.3 -4.2 -1.8 -5.1 -1 -0.6 -2.4 0.3 -3.6 0.5 -1.1 0.2 -2.2 0.7 -3.4 0.9 -2.6 0.5 -5.3 1.5 -8 1.1 -3 -0.5 -5.2 -3.3 -8 -4.1 -4.8 -1.3 -11.7 -2.5 -14.9 -1.1 -1.5 0.6 -5.1 6.1 -6.2 7.9 -3 5.1 -4.9 10.3 -8.2 15.7 -0.7 1.3 -1.5 2.4 -2.5 3.4 -1.4 1.4 -6.6 3.6 -4.7 3.4 3.9 -0.5 12.5 0 18.6 2.6 3.8 1.7 9.6 0.4 12.8 2.1 1.7 1 3 2.8 3.6 4.6 0.8 2.2 -0.5 4.8 0.1 7 0.7 2.5 3.4 4.2 4.2 6.7 0.3 0.8 -0.5 2 0.1 2.6 1.5 1.7 5.2 -0.6 6.8 1.1 0.7 0.8 -0.4 2.3 0.4 3.2 0.9 1 2.8 1.6 4.3 1.4 3.5 -0.5 5.5 -3.8 8.9 -5.9 z"/>
        <text id="label_icone_estado_sp" class="label_icone_estado" x="285" y="332">SP</text>
    </g>
    <g id="6">
        <desc>Alagoas</desc>
        <path id="estado_al" class="estado" d="m 453.5 177.2 c 0.3 -0.8 1 -1.9 -1.1 -2.3 -1.8 -0.2 -7.6 -1 -10.5 0.3 -1.7 0.8 -2.3 2.3 -4.1 3.1 -4.4 3 -8.1 -1.7 -12.3 -3 -1.2 -0.4 -3 -0.6 -4.1 0 -1.5 0.8 -2.5 0.9 -3.5 1.8 5.3 4.1 10.9 8.2 16.2 12.4 1.7 1.6 3.7 2.8 5.6 4.1 1.4 -1.4 3.2 -3.1 4.6 -4.5 3.2 -3.9 7.7 -7.4 9.3 -11.9 z"/>
        <path id="icone_al" class="icone_estado" d="m 453.1 184.9 c 0 5.2 -4.2 9.4 -9.4 9.4 -5.2 0 -9.4 -4.2 -9.4 -9.4 0 -5.2 4.2 -9.4 9.4 -9.4 5.2 0 9.4 4.2 9.4 9.4 z"/>
        <text id="label_icone_estado_al" class="label_icone_estado" x="437" y="188">AL</text>
    </g>
    <g id="25">
        <desc>Tocantins</desc>
        <path id="estado_to" class="estado" d="m 322.1 216.9 c 2.1 -9.1 -4.3 -6.9 0.3 -12.2 2 -2.3 -3 -4.5 -3.1 -7 -0.2 -4.8 4.4 -10.5 4.9 -13.5 0 0 -3.8 -1.8 -4.8 -3.5 -0.8 -1.2 -0.2 -3 -0.7 -4.3 -0.6 -1.6 -2.1 -2.6 -2.9 -4.1 -0.8 -1.2 -1 -2.7 -1 -4.1 -0.1 -2.2 0.7 -4.5 1.3 -6.6 0.4 -1.5 2.3 -2.8 1.8 -4.2 -0.7 -1.6 -3.5 -0.9 -4.9 -2.1 -2.3 -2.1 -3.8 -5.1 -4.4 -8 -0.8 -3.4 0.8 -6.9 0.7 -10.3 -0.1 -2.5 -0.1 -5.1 -1.2 -7.4 -1 -2.1 -2.7 -3.9 -4.6 -5 -1.9 -1.2 -3.9 -1.2 -6.6 -1.7 1.2 2.2 3.1 3.3 3.6 7.4 0.1 0.9 -0.8 3.4 -1.7 4.8 -1.6 2.5 -5.2 5.1 -6.2 6.4 -1.2 1.7 -3.4 4.3 -4.1 7 -0.6 2.3 0.7 4.8 0.3 7.1 -0.4 2.7 -1.1 5.4 -2.6 7.7 -1.4 1.9 -6.5 7.2 -8 11.6 -1.7 1.8 -6.9 16.7 -6.4 25.7 -0 5.1 0.1 10.4 1.7 15.3 1.8 -1.9 4.4 -2.3 4.2 1.1 -0.2 3.3 2.9 4.6 5.3 5.3 2.9 0.9 5.9 -2.2 8.9 -2.1 3.2 0.1 4.4 1.5 9.2 2.8 4.4 0.8 6.4 -5.6 10.3 -6.6 3.5 -0.9 8 3 10.8 0.6 z"/>
        <text id="label_icone_estado_to" class="label_icone_estado" x="289" y="190">TO</text>
    </g>	
    <g id="24">
        <desc>Sergipe</desc>
        <path id="estado_se" class="estado" d="m 426.8 203.6 c 1.6 -3.6 3.4 -4.2 5.7 -5 0.8 -0.5 1.8 -1.3 2.6 -2.1 1.4 -1 2.3 -1.4 3.8 -1.9 -4.3 -2.4 -8.2 -6.1 -11.9 -8.9 -1.3 -1 -2.8 -1.9 -4.1 -3 -1.8 -1.4 -3.6 -3.3 -5 -4.6 -0.5 0.9 0.2 2.6 1 5.1 0.9 2.8 1.4 3.9 2 5.9 0.7 2.6 0.7 4.4 0.5 5.5 -0.1 0.7 -0.7 1.4 -1.4 1.7 -1.1 0.4 -1.8 -1.4 -3.4 -0.6 -0.3 0.2 -0.8 1.1 0.5 4 1.7 2.8 2.5 6.6 6.1 7.2 0.7 0.1 1.3 -0.4 2 -0.6 0.7 -0.8 1.3 -1.7 1.7 -2.7 z"/>
        <path id="icone_se" class="icone_estado" d="m 439.5 201.3 c 0 5.2 -4.2 9.4 -9.4 9.4 -5.2 0 -9.4 -4.2 -9.4 -9.4 0 -5.2 4.2 -9.4 9.4 -9.4 5.2 0 9.4 4.2 9.4 9.4 z"/>
        <text id="label_icone_estado_se" class="label_icone_estado" x="422" y="205">SE</text>
    </g>
    <g id="18">
        <desc>Rio Grande do Norte</desc>
        <path id="estado_rn" class="estado" d="m 440.1 141.8 c 0.9 -0.2 1.6 0.3 2.8 0.7 1.5 0.8 7.8 0.8 11.6 1.2 -0.9 -3 -1.6 -6 -2.2 -9 -0.7 -0.9 -1.3 -2 -2.1 -2.8 -1.6 -1.4 -3.6 -1.9 -5.7 -2 -1.9 -0.2 -3.8 -0.5 -5.7 -0.4 -0.8 -0 -1.6 0.1 -2.4 -0.1 -2.5 -1.7 -4.5 -4.7 -7.5 -5.1 -1.4 -0.2 -2.9 0.5 -4 1.3 -1.9 1.4 -2.7 1.8 -4.2 5.6 -1.8 4.4 -7 4.5 -6.7 7.7 1 3.1 3.4 4 5.1 3.5 1.6 -0.5 4.8 -1.9 6.5 -3.1 1.7 -1.3 2.2 -2.6 3.7 -2.9 0.6 -0.1 1.3 0 1.7 0.4 0.5 0.5 0.7 1.3 0.7 2 -0.1 2.5 -4.4 4.6 -3.1 6.7 0.8 1.3 2.9 0.5 4.7 0.1 0.7 0.8 2.1 2 2.8 2.8 0.8 0.6 2.3 0 3 -1.4 0.1 -1.4 -1.2 -2.7 -0.7 -3.9 0.3 -0.7 1.1 -1.3 1.8 -1.4 z"/>
        <path id="icone_rn" class="icone_estado" d="m 452.2 131.1 c 0 5.2 -4.2 9.4 -9.4 9.4 -5.2 0 -9.4 -4.2 -9.4 -9.4 0 -5.2 4.2 -9.4 9.4 -9.4 5.2 0 9.4 4.2 9.4 9.4 z"/>
        <text id="label_icone_estado_rn" class="label_icone_estado" x="435" y="134">RN</text>
    </g>
    <g id="10">
        <desc>Esp&#237;rito Santo</desc>
        <path id="estado_es" class="estado" d="m 378.1 315.9 c 1 -0.3 1.9 -0.6 2.7 -1.2 0.9 -0.5 1.4 -1.5 2 -2.2 0.8 -1.1 1.3 -2.4 2.4 -3.3 0.4 -0.4 0.8 -0.8 1.2 -1.2 0.4 -1.2 -1.8 -3.5 0.2 -3.7 0.9 0.3 1.4 -0.4 1.8 -1.1 1 -1.1 1.5 -2.5 2.3 -3.8 0.4 -0.8 0.3 -1.7 0.4 -2.6 0.4 -3.7 2.5 -8.6 2.9 -12.3 -2.1 -1.5 -4 -3.1 -6.4 -3.7 -1.9 -0.4 -4.4 0.4 -5.9 0.4 -0.3 0.9 -0.7 1.7 -1 2.6 -0.9 0 -2.5 -0.5 -3 0.4 -0.5 0.8 0 0.9 1 2.6 -0.2 1.5 -0.4 2.3 -2 3.2 0.5 1.3 2.2 3.7 2.1 5.8 -0.2 3.1 -2.3 5.8 -4.2 8.2 -1.8 2.3 -5.1 4.2 -6.4 5.8 -1.2 1.4 -0.6 2.8 -0.2 4.2 0.3 1.4 0.9 1.7 1.8 4.2 3.4 0.5 4.3 0.7 6.3 1.1 1.5 -1.4 1.1 -1.8 2.1 -3.4 z"/>
        <path id="icone_es" class="icone_estado" d="m 397.7 304.9 c 0 5.2 -4.2 9.4 -9.4 9.4 -5.2 0 -9.4 -4.2 -9.4 -9.4 0 -5.2 4.2 -9.4 9.4 -9.4 5.2 0 9.4 4.2 9.4 9.4 z"/>
        <text id="label_icone_estado_es" class="label_icone_estado" x="381" y="308">ES</text>
    </g>
    <g id="17">
        <desc>Rio de Janeiro</desc>
        <path id="estado_rj" class="estado" d="m 363.1 338.2 c -0.1 -0.5 -0.8 -1.2 -0.2 -1.5 1.4 -1.4 2.8 -2.7 4.3 -4.1 2.3 -0.7 4.8 -1.1 6.5 -2.8 0.8 -1.1 0.2 -3 0.7 -4.4 0.3 -1.5 1.9 -3.6 1.1 -4.8 -2.7 -0.3 -4.3 -0.7 -6.5 -1.1 -0.7 -1.4 -1.8 -3.8 -2.6 -5.2 -1.1 1.1 -1.9 3.9 -2.6 5.2 -1 2.1 -1.2 4.7 -2.8 6.4 -2.1 2.2 -5.2 3.5 -8.2 4 -2.1 0.3 -4.2 -0.6 -6.3 -0.8 -3.6 1 -6.6 2.1 -10.6 3.2 -0.3 0.2 -4.1 1.2 -3 1 2.8 1.4 3.9 1.7 4.3 3.5 0.4 2.2 -2.5 4.5 -3.2 5.9 0.6 1 3.9 -2.2 4.7 -2.5 0.5 -0.3 3.2 -1.4 3.7 -0.8 1.6 1.3 4.3 0.2 6.3 0.1 0.5 -1 0.5 -2.6 1.6 -3 1 -0.3 1.9 0.8 2.8 1.2 -0.3 0.5 -0.7 1.1 -1 1.6 3.6 0.2 7.1 0.5 10.7 0.3 0.8 -0.1 0.7 -0.6 0.5 -1.2 -0 -0.1 -0 -0.2 -0.1 -0.3 z"/>
        <path id="icone_rj" class="icone_estado" d="m 373.7 336.9 c 0 5.2 -4.2 9.4 -9.4 9.4 -5.2 0 -9.4 -4.2 -9.4 -9.4 0 -5.2 4.2 -9.4 9.4 -9.4 5.2 0 9.4 4.2 9.4 9.4 z"/>
        <text id="label_icone_estado_rj" class="label_icone_estado" x="357" y="340">RJ</text>
    </g>
    <g id="13">
        <desc>Para&#237;ba</desc>
        <path id="estado_pb" class="estado" d="m 435.5 161.8 c 0.7 -0.7 1.1 -1.8 2 -2.2 2 -0.9 4.5 0.5 6.6 -0 1.6 -0.4 3.8 -0.6 4.4 -2.1 0.5 -1.3 2.8 -1.2 4.3 -1.2 1.3 -0.1 2.3 0 2.9 -0.8 1 -1.3 0.2 -3.2 0.1 -4.8 -0 -1.2 0.3 -2.5 -0.3 -3.5 -0.3 -0.4 -0.8 -0.6 -1.3 -0.8 -3.6 -0.7 -7.2 -0.9 -10.9 -0.8 -1.1 -0.6 -2.2 -2.4 -3.3 -1.8 -1 0.6 0.5 2.5 0 3.5 -0.6 1.2 -1.8 2.5 -3.1 2.6 -1.6 0.1 -3.1 -1.9 -4 -2.7 -1.5 0.1 -3.2 0.6 -4.5 -0.1 -0.7 -0.4 -1.2 -1.2 -1.2 -2 -0.2 -2.6 5.1 -5.5 3.1 -7.2 -1.6 -1.4 -3.9 2.9 -5.4 3.4 -2 0.9 -4 1.9 -6 2.7 -1.6 0 -3.4 -1.4 -4.9 -0.6 -1.2 0.6 -1.6 2.1 -1.9 3.7 -0.6 1.8 -0.5 9.9 1.2 10 1.9 0.4 3.9 1.4 5.8 1.1 2.5 -0.4 3.9 -1.6 6.6 -3.9 1.5 -1.4 3.1 -2.1 4.6 -1.4 0.9 0.4 1.2 1.4 1.3 2.6 0.1 1.4 -2.3 3.4 -2 5.2 0.2 1.4 1.3 2.9 2.8 3.4 1.2 -0 2.7 -1.3 3 -2.2 z"/>
        <path id="icone_pb" class="icone_estado" d="m 458.1 151.3 c 0 5.2 -4.2 9.4 -9.4 9.4 -5.2 0 -9.4 -4.2 -9.4 -9.4 0 -5.2 4.2 -9.4 9.4 -9.4 5.2 0 9.4 4.2 9.4 9.4 z"/>
        <text id="label_icone_estado_pb" class="label_icone_estado" x="441" y="155">PB</text>
    </g>
    <g id="9">
        <desc>Distrito Federal</desc>
        <path id="icone_df" class="icone_estado" d="m 310.8 251 c 0 5.2 -4.2 9.4 -9.4 9.4 -5.2 0 -9.4 -4.2 -9.4 -9.4 0 -5.2 4.2 -9.4 9.4 -9.4 5.2 0 9.4 4.2 9.4 9.4 z"/>
        <text id="label_icone_estado_df" class="label_icone_estado" x="294" y="254">DF</text>
    </g>
</svg>